<svg width="427" height="54" viewBox="0 0 427 54" fill="none" xmlns="http://www.w3.org/2000/svg">
<path d="M18.7422 52.0703C17.4297 52.0234 16.1523 51.9883 14.9102 51.9648C13.6914 51.9414 12.4727 51.9297 11.2539 51.9297C9.42578 51.9297 7.62109 51.9531 5.83984 52C4.05859 52.0703 2.21875 52.1641 0.320312 52.2812C0.53125 47.9219 0.695312 43.6094 0.8125 39.3438C0.953125 35.0547 1.02344 30.7305 1.02344 26.3711C1.02344 22.1992 0.964844 18.0625 0.847656 13.9609C0.753906 9.83594 0.578125 5.6875 0.320312 1.51562C0.554688 1.53906 0.824219 1.55078 1.12891 1.55078C1.38672 1.57422 1.70312 1.58594 2.07812 1.58594C2.45312 1.58594 2.875 1.58594 3.34375 1.58594C4.09375 1.58594 4.90234 1.57422 5.76953 1.55078C6.66016 1.50391 7.55078 1.44531 8.44141 1.375C8.13672 4.75 7.91406 8.30078 7.77344 12.0273C7.65625 15.7539 7.57422 19.5273 7.52734 23.3477C7.50391 27.1445 7.48047 30.9414 7.45703 34.7383C7.45703 38.5117 7.42188 42.1562 7.35156 45.6719C9.27344 45.625 11.1367 45.5312 12.9414 45.3906C14.7695 45.25 16.7031 45.0273 18.7422 44.7227V52.0703ZM35.8633 33.1914C35.1367 33.1445 34.3984 33.1094 33.6484 33.0859C32.8984 33.0625 32.1484 33.0508 31.3984 33.0508C30.9766 33.0508 30.5312 33.0625 30.0625 33.0859C29.6172 33.1094 29.1719 33.1211 28.7266 33.1211L28.5859 45.6719C30.5078 45.625 32.3711 45.5312 34.1758 45.3906C36.0039 45.25 37.9375 45.0273 39.9766 44.7227V52.0703C38.6641 52.0234 37.3867 51.9883 36.1445 51.9648C34.9258 51.9414 33.707 51.9297 32.4883 51.9297C30.6602 51.9297 28.8555 51.9531 27.0742 52C25.293 52.0703 23.4531 52.1641 21.5547 52.2812C21.7656 47.9219 21.9297 43.6094 22.0469 39.3438C22.1875 35.0547 22.2578 30.7305 22.2578 26.3711C22.2578 22.1992 22.1992 18.0625 22.082 13.9609C21.9883 9.83594 21.8125 5.6875 21.5547 1.51562C24.3203 1.72656 26.957 1.83203 29.4648 1.83203C31.0586 1.83203 32.6406 1.79688 34.2109 1.72656C35.8047 1.63281 37.5039 1.51562 39.3086 1.375V9.46094C37.8555 9.20313 36.4141 9.00391 34.9844 8.86328C33.5781 8.72266 32.1719 8.65234 30.7656 8.65234H29.3945C29.1602 11.582 28.9961 14.5 28.9023 17.4062C28.832 20.3125 28.7734 23.2305 28.7266 26.1602C29.3359 26.207 29.9453 26.2305 30.5547 26.2305C31.1875 26.2305 31.832 26.2305 32.4883 26.2305C33.0273 26.2305 33.5781 26.2305 34.1406 26.2305C34.7031 26.2305 35.2773 26.207 35.8633 26.1602V33.1914ZM57.5195 52.2812C57.4023 50.6641 57.2852 49.0352 57.168 47.3945C57.0742 45.7539 56.957 44.1016 56.8164 42.4375C55.7852 42.3672 54.7891 42.2969 53.8281 42.2266C52.8672 42.1562 51.8945 42.1211 50.9102 42.1211H50.4531C50.3359 43.8086 50.2305 45.4727 50.1367 47.1133C50.043 48.7539 49.9609 50.3828 49.8906 52L41.1016 51.8594C42.5547 43.4922 43.8672 35.1484 45.0391 26.8281C46.2109 18.5078 47.207 10.1172 48.0273 1.65625L58.6094 1.83203C59.5 10.1992 60.5664 18.5195 61.8086 26.793C63.0742 35.043 64.5508 43.3516 66.2383 51.7188L57.5195 52.2812ZM53.4062 10.5156C52.9375 14.8281 52.4922 19.1289 52.0703 23.418C51.6484 27.707 51.2617 32.0312 50.9102 36.3906C51.4023 36.4375 51.9062 36.4609 52.4219 36.4609C52.9375 36.4609 53.4648 36.4609 54.0039 36.4609H56.2891C55.8906 32.1016 55.4453 27.7773 54.9531 23.4883C54.4609 19.1992 53.9453 14.875 53.4062 10.5156ZM89.1602 16.5625C89.1602 18.1328 89.0078 19.7148 88.7031 21.3086C88.4219 22.8789 87.9531 24.4023 87.2969 25.8789C86.6406 27.332 85.7969 28.7031 84.7656 29.9922C83.7344 31.2578 82.4688 32.3828 80.9688 33.3672C82.2812 36.7188 83.7227 39.9414 85.293 43.0352C86.8867 46.1055 88.6562 49.0703 90.6016 51.9297L81.8125 52.4219L75.8359 35.4414C75.9297 38.3008 76.0469 41.1367 76.1875 43.9492C76.3281 46.7617 76.5039 49.5391 76.7148 52.2812H68.1367C68.5117 46.9609 68.7812 41.6406 68.9453 36.3203C69.1328 31 69.2266 25.6445 69.2266 20.2539C69.2266 17.1367 69.2031 14.0312 69.1562 10.9375C69.1094 7.82031 69.0156 4.67969 68.875 1.51562C70.1172 1.14062 71.3711 0.894531 72.6367 0.777344C73.9258 0.660156 75.0156 0.601562 75.9062 0.601562C76.5391 0.601562 77.3008 0.671875 78.1914 0.8125C79.1055 0.929687 80.0547 1.1875 81.0391 1.58594C82.0234 1.98437 82.9961 2.54687 83.957 3.27344C84.9414 4 85.8086 4.96094 86.5586 6.15625C87.332 7.32812 87.9531 8.76953 88.4219 10.4805C88.9141 12.168 89.1602 14.1953 89.1602 16.5625ZM75.7656 29.7461C76.5859 29.5117 77.3008 29.1719 77.9102 28.7266C78.543 28.2578 79.0938 27.7305 79.5625 27.1445C80.0312 26.5586 80.418 25.9375 80.7227 25.2812C81.0508 24.625 81.3203 23.9688 81.5312 23.3125C82 21.7891 82.2695 20.125 82.3398 18.3203C82.3398 18.2734 82.3281 17.9922 82.3047 17.4766C82.3047 16.9375 82.2461 16.2695 82.1289 15.4727C82.0117 14.6758 81.8359 13.8086 81.6016 12.8711C81.3906 11.9336 81.0742 11.0313 80.6523 10.1641C80.2305 9.27344 79.6914 8.48828 79.0352 7.80859C78.3789 7.12891 77.582 6.64844 76.6445 6.36719C76.3633 10.0469 76.1406 13.7148 75.9766 17.3711C75.8359 21.0039 75.7656 24.6719 75.7656 28.375V29.7461ZM118.41 1.30469C118.105 6.01562 117.871 10.6914 117.707 15.332C117.543 19.9492 117.461 24.5898 117.461 29.2539C117.461 32.8867 117.508 36.4727 117.602 40.0117C117.719 43.5508 117.906 47.1133 118.164 50.6992L111.062 50.4883C110.125 47.4414 109.199 44.418 108.285 41.418C107.395 38.3945 106.504 35.3945 105.613 32.418C104.723 29.4414 103.809 26.4766 102.871 23.5234C101.957 20.5703 101.008 17.6289 100.023 14.6992C100.094 20.8164 100.199 26.9219 100.34 33.0156C100.504 39.0859 100.785 45.1445 101.184 51.1914L93.0625 51.1211C93.3438 43.6445 93.4844 36.1328 93.4844 28.5859C93.4844 23.9453 93.4375 19.3516 93.3438 14.8047C93.25 10.2578 93.1094 5.6875 92.9219 1.09375L102.766 1.30469C103.961 6.46094 105.238 11.6992 106.598 17.0195C107.957 22.3398 109.398 27.5898 110.922 32.7695C110.758 27.4727 110.512 22.1758 110.184 16.8789C109.879 11.5586 109.539 6.34375 109.164 1.23438L118.41 1.30469ZM155.641 17.0898C155.641 19.1055 155.371 21.0859 154.832 23.0312C154.316 24.9531 153.508 26.7344 152.406 28.375C151.328 30.0156 149.957 31.4688 148.293 32.7344C146.629 33.9766 144.66 34.9258 142.387 35.582C142.434 38.418 142.492 41.2305 142.562 44.0195C142.656 46.7852 142.762 49.5391 142.879 52.2812H134.301C134.676 46.9609 134.945 41.6406 135.109 36.3203C135.297 31 135.391 25.6445 135.391 20.2539C135.391 17.1367 135.367 14.0312 135.32 10.9375C135.273 7.82031 135.18 4.67969 135.039 1.51562C136.281 1.14062 137.535 0.894531 138.801 0.777344C140.09 0.660156 141.18 0.601562 142.07 0.601562C142.703 0.601562 143.477 0.671875 144.391 0.8125C145.328 0.953125 146.289 1.23438 147.273 1.65625C148.281 2.05469 149.277 2.62891 150.262 3.37891C151.27 4.10547 152.172 5.08984 152.969 6.33203C153.766 7.55078 154.41 9.03906 154.902 10.7969C155.395 12.5547 155.641 14.6523 155.641 17.0898ZM142.387 29.6055C143.16 29.3242 143.828 28.9492 144.391 28.4805C144.977 28.0117 145.48 27.4961 145.902 26.9336C146.348 26.3477 146.711 25.7266 146.992 25.0703C147.297 24.4141 147.543 23.7695 147.73 23.1367C148.176 21.6602 148.434 20.0547 148.504 18.3203C148.504 18.2969 148.492 18.0273 148.469 17.5117C148.469 16.9961 148.41 16.3516 148.293 15.5781C148.199 14.7812 148.035 13.9141 147.801 12.9766C147.566 12.0156 147.238 11.1016 146.816 10.2344C146.418 9.36719 145.891 8.59375 145.234 7.91406C144.602 7.21094 143.816 6.71875 142.879 6.4375C142.691 10.0703 142.562 13.7148 142.492 17.3711C142.422 21.0039 142.387 24.6719 142.387 28.375V29.6055ZM172.41 51.5078C171.473 51.4609 170.535 51.4258 169.598 51.4023C168.66 51.3789 167.723 51.3672 166.785 51.3672C165.238 51.3672 163.691 51.4023 162.145 51.4727C160.598 51.5195 159.051 51.6016 157.504 51.7188L157.574 44.1602C158.113 44.2305 158.652 44.2891 159.191 44.3359C159.73 44.3594 160.27 44.3945 160.809 44.4414C160.949 40.8086 161.078 37.1992 161.195 33.6133C161.336 30.0039 161.406 26.3945 161.406 22.7852C161.406 20.3711 161.371 17.9922 161.301 15.6484C161.23 13.2813 161.16 10.9023 161.09 8.51172C160.48 8.51172 159.859 8.52344 159.227 8.54688C158.594 8.57031 157.949 8.60547 157.293 8.65234L157.363 1.30469C159.168 1.42187 160.973 1.51562 162.777 1.58594C164.582 1.63281 166.398 1.65625 168.227 1.65625C168.883 1.65625 169.539 1.65625 170.195 1.65625C170.852 1.65625 171.52 1.63281 172.199 1.58594L171.988 8.58203C171.449 8.58203 170.91 8.57031 170.371 8.54688C169.855 8.52344 169.328 8.51172 168.789 8.51172C168.461 12.7305 168.227 16.9258 168.086 21.0977C167.945 25.2461 167.875 29.4297 167.875 33.6484C167.875 37.3281 167.945 40.9961 168.086 44.6523C168.836 44.6523 169.598 44.6406 170.371 44.6172C171.168 44.5938 171.965 44.5586 172.762 44.5117L172.41 51.5078ZM190.34 52.2812C190.223 50.6641 190.105 49.0352 189.988 47.3945C189.895 45.7539 189.777 44.1016 189.637 42.4375C188.605 42.3672 187.609 42.2969 186.648 42.2266C185.688 42.1562 184.715 42.1211 183.73 42.1211H183.273C183.156 43.8086 183.051 45.4727 182.957 47.1133C182.863 48.7539 182.781 50.3828 182.711 52L173.922 51.8594C175.375 43.4922 176.688 35.1484 177.859 26.8281C179.031 18.5078 180.027 10.1172 180.848 1.65625L191.43 1.83203C192.32 10.1992 193.387 18.5195 194.629 26.793C195.895 35.043 197.371 43.3516 199.059 51.7188L190.34 52.2812ZM186.227 10.5156C185.758 14.8281 185.312 19.1289 184.891 23.418C184.469 27.707 184.082 32.0312 183.73 36.3906C184.223 36.4375 184.727 36.4609 185.242 36.4609C185.758 36.4609 186.285 36.4609 186.824 36.4609H189.109C188.711 32.1016 188.266 27.7773 187.773 23.4883C187.281 19.1992 186.766 14.875 186.227 10.5156ZM226.832 1.30469C226.527 6.01562 226.293 10.6914 226.129 15.332C225.965 19.9492 225.883 24.5898 225.883 29.2539C225.883 32.8867 225.93 36.4727 226.023 40.0117C226.141 43.5508 226.328 47.1133 226.586 50.6992L219.484 50.4883C218.547 47.4414 217.621 44.418 216.707 41.418C215.816 38.3945 214.926 35.3945 214.035 32.418C213.145 29.4414 212.23 26.4766 211.293 23.5234C210.379 20.5703 209.43 17.6289 208.445 14.6992C208.516 20.8164 208.621 26.9219 208.762 33.0156C208.926 39.0859 209.207 45.1445 209.605 51.1914L201.484 51.1211C201.766 43.6445 201.906 36.1328 201.906 28.5859C201.906 23.9453 201.859 19.3516 201.766 14.8047C201.672 10.2578 201.531 5.6875 201.344 1.09375L211.188 1.30469C212.383 6.46094 213.66 11.6992 215.02 17.0195C216.379 22.3398 217.82 27.5898 219.344 32.7695C219.18 27.4727 218.934 22.1758 218.605 16.8789C218.301 11.5586 217.961 6.34375 217.586 1.23438L226.832 1.30469ZM255.027 27.3906C255.027 32.1016 254.699 36.0977 254.043 39.3789C253.41 42.6602 252.543 45.332 251.441 47.3945C250.34 49.4336 249.039 50.9219 247.539 51.8594C246.039 52.7734 244.434 53.2305 242.723 53.2305C241.012 53.2305 239.406 52.7969 237.906 51.9297C236.406 51.0391 235.094 49.5859 233.969 47.5703C232.844 45.5547 231.953 42.8945 231.297 39.5898C230.664 36.2852 230.348 32.2188 230.348 27.3906C230.348 22.5391 230.664 18.4258 231.297 15.0508C231.953 11.6523 232.844 8.89844 233.969 6.78906C235.094 4.65625 236.406 3.12109 237.906 2.18359C239.406 1.22266 241.012 0.742188 242.723 0.742188C244.434 0.742188 246.039 1.21094 247.539 2.14844C249.039 3.0625 250.34 4.57422 251.441 6.68359C252.543 8.79297 253.41 11.5469 254.043 14.9453C254.699 18.3203 255.027 22.4688 255.027 27.3906ZM247.188 27.3906C247.188 23.7109 247.07 20.6055 246.836 18.0742C246.602 15.543 246.273 13.4922 245.852 11.9219C245.453 10.3281 244.984 9.17969 244.445 8.47656C243.906 7.77344 243.332 7.42188 242.723 7.42188C242.09 7.42188 241.492 7.78516 240.93 8.51172C240.391 9.21484 239.91 10.3633 239.488 11.957C239.09 13.5273 238.773 15.5898 238.539 18.1445C238.305 20.6758 238.188 23.7578 238.188 27.3906C238.188 31 238.305 34.0352 238.539 36.4961C238.773 38.9336 239.09 40.9023 239.488 42.4023C239.91 43.8789 240.391 44.9336 240.93 45.5664C241.492 46.1992 242.09 46.5156 242.723 46.5156C243.332 46.5156 243.906 46.1875 244.445 45.5312C244.984 44.8516 245.453 43.7617 245.852 42.2617C246.273 40.7383 246.602 38.7578 246.836 36.3203C247.07 33.8828 247.188 30.9062 247.188 27.3906ZM305.16 2.74609L300.238 53.3711H290.957C290.887 51.3086 290.805 49.375 290.711 47.5703C290.641 45.7422 290.535 43.9961 290.395 42.332C290.254 40.668 290.09 39.0391 289.902 37.4453C289.738 35.8516 289.539 34.2227 289.305 32.5586C289.094 30.8945 288.848 29.1719 288.566 27.3906C288.285 25.5859 287.98 23.6641 287.652 21.625C287.207 24.25 286.586 28.1875 285.789 33.4375C284.992 38.6641 284.031 45.1914 282.906 53.0195L273.168 53.5117L269.652 2.95703L278.512 2.74609C278.488 4.19922 278.477 5.78125 278.477 7.49219C278.453 8.96875 278.441 10.668 278.441 12.5898C278.441 14.4883 278.441 16.5156 278.441 18.6719C278.441 20.3828 278.441 22.1172 278.441 23.875C278.441 25.6328 278.441 27.3672 278.441 29.0781C278.465 30.7656 278.477 32.3945 278.477 33.9648C278.5 35.5352 278.535 36.9648 278.582 38.2539L283.398 7.63281H291.52L295.352 36.8125C295.398 35.0781 295.445 33.25 295.492 31.3281C295.562 29.3828 295.621 27.4258 295.668 25.457C295.715 23.4883 295.75 21.543 295.773 19.6211C295.82 17.6992 295.867 15.8594 295.914 14.1016C296.008 10 296.09 5.91016 296.16 1.83203L305.16 2.74609ZM322.105 51.5078C321.168 51.4609 320.23 51.4258 319.293 51.4023C318.355 51.3789 317.418 51.3672 316.48 51.3672C314.934 51.3672 313.387 51.4023 311.84 51.4727C310.293 51.5195 308.746 51.6016 307.199 51.7188L307.27 44.1602C307.809 44.2305 308.348 44.2891 308.887 44.3359C309.426 44.3594 309.965 44.3945 310.504 44.4414C310.645 40.8086 310.773 37.1992 310.891 33.6133C311.031 30.0039 311.102 26.3945 311.102 22.7852C311.102 20.3711 311.066 17.9922 310.996 15.6484C310.926 13.2813 310.855 10.9023 310.785 8.51172C310.176 8.51172 309.555 8.52344 308.922 8.54688C308.289 8.57031 307.645 8.60547 306.988 8.65234L307.059 1.30469C308.863 1.42187 310.668 1.51562 312.473 1.58594C314.277 1.63281 316.094 1.65625 317.922 1.65625C318.578 1.65625 319.234 1.65625 319.891 1.65625C320.547 1.65625 321.215 1.63281 321.895 1.58594L321.684 8.58203C321.145 8.58203 320.605 8.57031 320.066 8.54688C319.551 8.52344 319.023 8.51172 318.484 8.51172C318.156 12.7305 317.922 16.9258 317.781 21.0977C317.641 25.2461 317.57 29.4297 317.57 33.6484C317.57 37.3281 317.641 40.9961 317.781 44.6523C318.531 44.6523 319.293 44.6406 320.066 44.6172C320.863 44.5938 321.66 44.5586 322.457 44.5117L322.105 51.5078ZM343.199 8.86328C342.449 8.81641 341.582 8.78125 340.598 8.75781C339.637 8.73437 338.605 8.72266 337.504 8.72266C337.34 10.9023 337.199 13.1641 337.082 15.5078C336.988 17.8281 336.906 20.1953 336.836 22.6094C336.766 25 336.719 27.4141 336.695 29.8516C336.672 32.2656 336.66 34.6562 336.66 37.0234C336.66 39.7188 336.672 42.332 336.695 44.8633C336.742 47.3711 336.824 49.7969 336.941 52.1406H329.453C329.664 48.1562 329.828 43.9141 329.945 39.4141C330.062 34.9141 330.121 30.3789 330.121 25.8086C330.121 22.832 330.086 19.9258 330.016 17.0898C329.945 14.2539 329.875 11.4883 329.805 8.79297C328.68 8.79297 327.613 8.80469 326.605 8.82812C325.598 8.85156 324.695 8.88672 323.898 8.93359L323.969 1.58594C324.812 1.65625 325.762 1.71484 326.816 1.76172C327.871 1.78516 328.973 1.80859 330.121 1.83203C331.293 1.85547 332.488 1.87891 333.707 1.90234C334.926 1.90234 336.121 1.90234 337.293 1.90234C338.465 1.90234 339.566 1.90234 340.598 1.90234C341.652 1.90234 342.59 1.87891 343.41 1.83203L343.199 8.86328ZM355.539 1.51562C355.305 6.15625 355.105 10.7617 354.941 15.332C354.777 19.8789 354.66 24.4492 354.59 29.043C355.176 29.0898 355.762 29.1133 356.348 29.1133C356.957 29.1133 357.555 29.1133 358.141 29.1133C358.891 29.1133 359.652 29.1016 360.426 29.0781C361.223 29.0547 362.02 29.0195 362.816 28.9727C362.863 27.9414 362.887 26.9336 362.887 25.9492C362.887 24.9414 362.887 23.9102 362.887 22.8555C362.887 19.293 362.852 15.7422 362.781 12.2031C362.711 8.66406 362.594 5.10156 362.43 1.51562H371.078C370.656 7.16406 370.328 12.7773 370.094 18.3555C369.883 23.9102 369.777 29.5117 369.777 35.1602C369.777 37.9258 369.812 40.6797 369.883 43.4219C369.953 46.1641 370.047 48.9297 370.164 51.7188H362.148C362.266 48.9297 362.371 46.1523 362.465 43.3867C362.559 40.6211 362.652 37.8555 362.746 35.0898C361.41 35.0195 360.074 34.9609 358.738 34.9141C357.426 34.8438 356.113 34.8086 354.801 34.8086H354.52V42.0508C354.52 43.6914 354.52 45.3086 354.52 46.9023C354.52 48.4961 354.543 50.1016 354.59 51.7188H346.539C346.656 48.3438 346.727 45.0156 346.75 41.7344C346.797 38.4297 346.82 35.1133 346.82 31.7852C346.82 21.707 346.609 11.6172 346.188 1.51562H355.539ZM400.996 52.2812C400.879 50.6641 400.762 49.0352 400.645 47.3945C400.551 45.7539 400.434 44.1016 400.293 42.4375C399.262 42.3672 398.266 42.2969 397.305 42.2266C396.344 42.1562 395.371 42.1211 394.387 42.1211H393.93C393.812 43.8086 393.707 45.4727 393.613 47.1133C393.52 48.7539 393.438 50.3828 393.367 52L384.578 51.8594C386.031 43.4922 387.344 35.1484 388.516 26.8281C389.688 18.5078 390.684 10.1172 391.504 1.65625L402.086 1.83203C402.977 10.1992 404.043 18.5195 405.285 26.793C406.551 35.043 408.027 43.3516 409.715 51.7188L400.996 52.2812ZM396.883 10.5156C396.414 14.8281 395.969 19.1289 395.547 23.418C395.125 27.707 394.738 32.0312 394.387 36.3906C394.879 36.4375 395.383 36.4609 395.898 36.4609C396.414 36.4609 396.941 36.4609 397.48 36.4609H399.766C399.367 32.1016 398.922 27.7773 398.43 23.4883C397.938 19.1992 397.422 14.875 396.883 10.5156ZM425.957 51.5078C425.02 51.4609 424.082 51.4258 423.145 51.4023C422.207 51.3789 421.27 51.3672 420.332 51.3672C418.785 51.3672 417.238 51.4023 415.691 51.4727C414.145 51.5195 412.598 51.6016 411.051 51.7188L411.121 44.1602C411.66 44.2305 412.199 44.2891 412.738 44.3359C413.277 44.3594 413.816 44.3945 414.355 44.4414C414.496 40.8086 414.625 37.1992 414.742 33.6133C414.883 30.0039 414.953 26.3945 414.953 22.7852C414.953 20.3711 414.918 17.9922 414.848 15.6484C414.777 13.2813 414.707 10.9023 414.637 8.51172C414.027 8.51172 413.406 8.52344 412.773 8.54688C412.141 8.57031 411.496 8.60547 410.84 8.65234L410.91 1.30469C412.715 1.42187 414.52 1.51562 416.324 1.58594C418.129 1.63281 419.945 1.65625 421.773 1.65625C422.43 1.65625 423.086 1.65625 423.742 1.65625C424.398 1.65625 425.066 1.63281 425.746 1.58594L425.535 8.58203C424.996 8.58203 424.457 8.57031 423.918 8.54688C423.402 8.52344 422.875 8.51172 422.336 8.51172C422.008 12.7305 421.773 16.9258 421.633 21.0977C421.492 25.2461 421.422 29.4297 421.422 33.6484C421.422 37.3281 421.492 40.9961 421.633 44.6523C422.383 44.6523 423.145 44.6406 423.918 44.6172C424.715 44.5938 425.512 44.5586 426.309 44.5117L425.957 51.5078Z" fill="black"/>
</svg>
