<svg width="149" height="29" viewBox="0 0 149 29" fill="none" xmlns="http://www.w3.org/2000/svg">
<path d="M52.512 6.2H56.4V23H52.512V6.2ZM44.88 23H40.992V6.2H44.88V23ZM52.8 16.112H44.592V12.824H52.8V16.112ZM68.0308 23V20.48L67.7908 19.928V15.416C67.7908 14.616 67.5428 13.992 67.0468 13.544C66.5668 13.096 65.8228 12.872 64.8148 12.872C64.1268 12.872 63.4468 12.984 62.7748 13.208C62.1188 13.416 61.5588 13.704 61.0948 14.072L59.7508 11.456C60.4548 10.96 61.3028 10.576 62.2948 10.304C63.2868 10.032 64.2948 9.896 65.3188 9.896C67.2868 9.896 68.8148 10.36 69.9028 11.288C70.9908 12.216 71.5348 13.664 71.5348 15.632V23H68.0308ZM64.0948 23.192C63.0868 23.192 62.2228 23.024 61.5028 22.688C60.7828 22.336 60.2308 21.864 59.8468 21.272C59.4628 20.68 59.2708 20.016 59.2708 19.28C59.2708 18.512 59.4548 17.84 59.8228 17.264C60.2068 16.688 60.8068 16.24 61.6228 15.92C62.4388 15.584 63.5028 15.416 64.8148 15.416H68.2468V17.6H65.2228C64.3428 17.6 63.7348 17.744 63.3988 18.032C63.0788 18.32 62.9188 18.68 62.9188 19.112C62.9188 19.592 63.1028 19.976 63.4708 20.264C63.8548 20.536 64.3748 20.672 65.0308 20.672C65.6548 20.672 66.2148 20.528 66.7108 20.24C67.2068 19.936 67.5668 19.496 67.7908 18.92L68.3668 20.648C68.0948 21.48 67.5988 22.112 66.8788 22.544C66.1588 22.976 65.2308 23.192 64.0948 23.192ZM74.9233 23V10.088H78.4993V13.736L77.9953 12.68C78.3793 11.768 78.9953 11.08 79.8433 10.616C80.6913 10.136 81.7233 9.896 82.9393 9.896V13.352C82.7793 13.336 82.6353 13.328 82.5073 13.328C82.3793 13.312 82.2433 13.304 82.0993 13.304C81.0753 13.304 80.2433 13.6 79.6033 14.192C78.9793 14.768 78.6673 15.672 78.6673 16.904V23H74.9233ZM101.725 9.896C102.749 9.896 103.653 10.104 104.437 10.52C105.237 10.92 105.861 11.544 106.309 12.392C106.773 13.224 107.005 14.296 107.005 15.608V23H103.261V16.184C103.261 15.144 103.045 14.376 102.613 13.88C102.181 13.384 101.573 13.136 100.789 13.136C100.245 13.136 99.7569 13.264 99.3249 13.52C98.8929 13.76 98.5569 14.128 98.3169 14.624C98.0769 15.12 97.9569 15.752 97.9569 16.52V23H94.2129V16.184C94.2129 15.144 93.9969 14.376 93.5649 13.88C93.1489 13.384 92.5489 13.136 91.7649 13.136C91.2209 13.136 90.7329 13.264 90.3009 13.52C89.8689 13.76 89.5329 14.128 89.2929 14.624C89.0529 15.12 88.9329 15.752 88.9329 16.52V23H85.1889V10.088H88.7649V13.616L88.0929 12.584C88.5409 11.704 89.1729 11.04 89.9889 10.592C90.8209 10.128 91.7649 9.896 92.8209 9.896C94.0049 9.896 95.0369 10.2 95.9169 10.808C96.8129 11.4 97.4049 12.312 97.6929 13.544L96.3729 13.184C96.8049 12.176 97.4929 11.376 98.4369 10.784C99.3969 10.192 100.493 9.896 101.725 9.896ZM116.599 23.192C115.223 23.192 113.999 22.904 112.927 22.328C111.871 21.752 111.031 20.968 110.407 19.976C109.799 18.968 109.495 17.824 109.495 16.544C109.495 15.248 109.799 14.104 110.407 13.112C111.031 12.104 111.871 11.32 112.927 10.76C113.999 10.184 115.223 9.896 116.599 9.896C117.959 9.896 119.175 10.184 120.247 10.76C121.319 11.32 122.159 12.096 122.767 13.088C123.375 14.08 123.679 15.232 123.679 16.544C123.679 17.824 123.375 18.968 122.767 19.976C122.159 20.968 121.319 21.752 120.247 22.328C119.175 22.904 117.959 23.192 116.599 23.192ZM116.599 20.12C117.223 20.12 117.783 19.976 118.279 19.688C118.775 19.4 119.167 18.992 119.455 18.464C119.743 17.92 119.887 17.28 119.887 16.544C119.887 15.792 119.743 15.152 119.455 14.624C119.167 14.096 118.775 13.688 118.279 13.4C117.783 13.112 117.223 12.968 116.599 12.968C115.975 12.968 115.415 13.112 114.919 13.4C114.423 13.688 114.023 14.096 113.719 14.624C113.431 15.152 113.287 15.792 113.287 16.544C113.287 17.28 113.431 17.92 113.719 18.464C114.023 18.992 114.423 19.4 114.919 19.688C115.415 19.976 115.975 20.12 116.599 20.12ZM134.029 9.896C135.053 9.896 135.965 10.104 136.765 10.52C137.581 10.92 138.221 11.544 138.685 12.392C139.149 13.224 139.381 14.296 139.381 15.608V23H135.637V16.184C135.637 15.144 135.405 14.376 134.941 13.88C134.493 13.384 133.853 13.136 133.021 13.136C132.429 13.136 131.893 13.264 131.413 13.52C130.949 13.76 130.581 14.136 130.309 14.648C130.053 15.16 129.925 15.816 129.925 16.616V23H126.181V10.088H129.757V13.664L129.085 12.584C129.549 11.72 130.213 11.056 131.077 10.592C131.941 10.128 132.925 9.896 134.029 9.896ZM142.775 23V10.088H146.519V23H142.775ZM144.647 8.288C143.959 8.288 143.399 8.088 142.967 7.688C142.535 7.288 142.319 6.792 142.319 6.2C142.319 5.608 142.535 5.112 142.967 4.712C143.399 4.312 143.959 4.112 144.647 4.112C145.335 4.112 145.895 4.304 146.327 4.688C146.759 5.056 146.975 5.536 146.975 6.128C146.975 6.752 146.759 7.272 146.327 7.688C145.911 8.088 145.351 8.288 144.647 8.288Z" fill="black"/>
<path d="M3.45 12.3H20.55M3.45 17.7H20.55M12 24C16.9706 24 21 19.9706 21 15C21 10.0294 16.9706 6 12 6C7.02944 6 3 10.0294 3 15C3 19.9706 7.02944 24 12 24ZM12 23.1C12 23.1 15.6 20.1545 15.6 15C15.6 9.84545 12 6.9 12 6.9C12 6.9 8.4 9.84545 8.4 15C8.4 20.1545 12 23.1 12 23.1Z" stroke="#1B1D1F" stroke-width="2" stroke-linecap="round"/>
</svg>
